<svg width="40" height="40" viewBox="0 0 40 40" fill="none" xmlns="http://www.w3.org/2000/svg">
<rect x="0.5" y="0.5" width="39" height="39" stroke="#2D2F31"/>
<g clip-path="url(#clip0_1_1199)">
<path d="M19.9917 11.6667C15.3917 11.6667 11.6667 15.4 11.6667 20C11.6667 24.6 15.3917 28.3333 19.9917 28.3333C24.6 28.3333 28.3333 24.6 28.3333 20C28.3333 15.4 24.6 11.6667 19.9917 11.6667ZM25.7667 16.6667H23.3083C23.0475 15.6345 22.6613 14.6382 22.1583 13.7C23.6784 14.2233 24.9593 15.2764 25.7667 16.6667ZM20 13.3667C20.6917 14.3667 21.2333 15.475 21.5917 16.6667H18.4083C18.7667 15.475 19.3083 14.3667 20 13.3667ZM13.55 21.6667C13.4167 21.1333 13.3333 20.575 13.3333 20C13.3333 19.425 13.4167 18.8667 13.55 18.3333H16.3667C16.3 18.8833 16.25 19.4333 16.25 20C16.25 20.5667 16.3 21.1167 16.3667 21.6667H13.55ZM14.2333 23.3333H16.6917C16.9583 24.375 17.3417 25.375 17.8417 26.3C16.32 25.7795 15.0382 24.7257 14.2333 23.3333ZM16.6917 16.6667H14.2333C15.0382 15.2743 16.32 14.2205 17.8417 13.7C17.3387 14.6382 16.9525 15.6345 16.6917 16.6667ZM20 26.6333C19.3083 25.6333 18.7667 24.525 18.4083 23.3333H21.5917C21.2333 24.525 20.6917 25.6333 20 26.6333ZM21.95 21.6667H18.05C17.975 21.1167 17.9167 20.5667 17.9167 20C17.9167 19.4333 17.975 18.875 18.05 18.3333H21.95C22.025 18.875 22.0833 19.4333 22.0833 20C22.0833 20.5667 22.025 21.1167 21.95 21.6667ZM22.1583 26.3C22.6583 25.375 23.0417 24.375 23.3083 23.3333H25.7667C24.9593 24.7236 23.6784 25.7767 22.1583 26.3ZM23.6333 21.6667C23.7 21.1167 23.75 20.5667 23.75 20C23.75 19.4333 23.7 18.8833 23.6333 18.3333H26.45C26.5833 18.8667 26.6667 19.425 26.6667 20C26.6667 20.575 26.5833 21.1333 26.45 21.6667H23.6333Z" fill="#2D2F31"/>
</g>
<defs>
<clipPath id="clip0_1_1199">
<rect width="20" height="20" fill="white" transform="translate(10 10)"/>
</clipPath>
</defs>
</svg>
