<svg width="48" height="72" viewBox="0 0 48 72" fill="none" xmlns="http://www.w3.org/2000/svg">
<g clip-path="url(#clip0_1_1190)">
<path d="M27.55 37C28.3 37 28.96 36.59 29.3 35.97L32.88 29.48C32.9643 29.3284 33.0075 29.1575 33.0054 28.9841C33.0034 28.8106 32.956 28.6408 32.8681 28.4913C32.7803 28.3418 32.6549 28.2178 32.5043 28.1316C32.3538 28.0455 32.1834 28.0001 32.01 28H17.21L16.27 26H13V28H15L18.6 35.59L17.25 38.03C16.52 39.37 17.48 41 19 41H31V39H19L20.1 37H27.55ZM18.16 30H30.31L27.55 35H20.53L18.16 30ZM19 42C17.9 42 17.01 42.9 17.01 44C17.01 45.1 17.9 46 19 46C20.1 46 21 45.1 21 44C21 42.9 20.1 42 19 42ZM29 42C27.9 42 27.01 42.9 27.01 44C27.01 45.1 27.9 46 29 46C30.1 46 31 45.1 31 44C31 42.9 30.1 42 29 42Z" fill="#2D2F31"/>
</g>
<defs>
<clipPath id="clip0_1_1190">
<rect width="24" height="24" fill="white" transform="translate(12 24)"/>
</clipPath>
</defs>
</svg>
