<svg width="94" height="40" viewBox="0 0 94 40" fill="none" xmlns="http://www.w3.org/2000/svg">
<g clip-path="url(#clip0_1_1542)">
<g clip-path="url(#clip1_1_1542)">
<g clip-path="url(#clip2_1_1542)">
<mask id="mask0_1_1542" style="mask-type:luminance" maskUnits="userSpaceOnUse" x="0" y="0" width="94" height="40">
<path d="M93.6904 0.5H0.69043V39.5H93.6904V0.5Z" fill="white"/>
</mask>
<g mask="url(#mask0_1_1542)">
<path d="M30.5684 7.70499H2.7266V2.52393H30.5684V7.70499ZM32.5577 0.523438H0.736328V9.70043H32.5577V0.523438Z" fill="#6A6F73"/>
<path d="M2.72645 24.873H0.737305V15.6935H2.72645V19.3198H6.28044V15.6935H8.26959V24.873H6.28044V21.0702H2.72645V24.873Z" fill="#6A6F73"/>
<path d="M11.3014 20.8222H13.6707C13.6266 20.1473 13.3492 19.6769 12.5737 19.6769C11.9886 19.6769 11.4767 19.927 11.3014 20.8222ZM12.8076 24.9922C10.7895 24.9922 9.41504 23.7147 9.41504 21.616C9.41504 19.5744 10.7605 18.1652 12.5447 18.1652C14.4897 18.1652 15.455 19.4718 15.455 21.4248V22.1592H11.3014C11.536 23.1715 12.3253 23.4355 13.1153 23.4355C13.8025 23.4355 14.2993 23.2892 14.9134 22.9069H14.9872V24.4193C14.4607 24.8016 13.7142 24.9922 12.8076 24.9922Z" fill="#6A6F73"/>
<path d="M20.6321 21.0246L19.6082 24.8711H17.8681L15.8789 18.4138V18.3403H17.7804L18.8623 22.2021L19.8862 18.3403H21.4365L22.4749 22.2021L23.572 18.3403H25.4003V18.4138L23.4112 24.8711H21.6704L20.6321 21.0246Z" fill="#6A6F73"/>
<path d="M28.601 24.9746C27.0216 24.9746 26.3779 24.3434 26.3779 22.8608V15.6501H28.3084V22.7278C28.3084 23.183 28.4837 23.3445 28.8639 23.3445C28.9957 23.3445 29.1861 23.3008 29.3027 23.2565H29.3323V24.8569C29.1716 24.9151 28.8935 24.9746 28.601 24.9746Z" fill="#6A6F73"/>
<path d="M31.779 20.8222H34.1483C34.1042 20.1473 33.8267 19.6769 33.0513 19.6769C32.4668 19.6769 31.9542 19.927 31.779 20.8222ZM33.2852 24.9922C31.267 24.9922 29.8926 23.7147 29.8926 21.616C29.8926 19.5744 31.238 18.1652 33.0223 18.1652C34.9673 18.1652 35.9325 19.4718 35.9325 21.4248V22.1592H31.779C32.0129 23.1715 32.8029 23.4355 33.5922 23.4355C34.2801 23.4355 34.7769 23.2892 35.3916 22.9069H35.4647V24.4193C34.9383 24.8016 34.1924 24.9922 33.2852 24.9922Z" fill="#6A6F73"/>
<path d="M43.884 18.3395H45.3171V19.8956H43.884V22.5532C43.884 23.1261 44.1034 23.3907 44.6885 23.3907C44.8493 23.3907 45.0542 23.3755 45.2736 23.3021H45.3171V24.8291C45.0687 24.9177 44.6885 25.0196 44.1331 25.0196C42.5676 25.0196 41.9535 24.3005 41.9535 22.6412V19.8956H39.482V22.5532C39.482 23.1261 39.7014 23.3907 40.2859 23.3907C40.4473 23.3907 40.6522 23.3755 40.8716 23.3021H40.9151V24.8291C40.6667 24.9177 40.2859 25.0196 39.7311 25.0196C38.1656 25.0196 37.5515 24.3005 37.5515 22.6412V19.8956H36.5566V18.3395H37.5515V16.5485H39.482V18.3395H41.9535V16.5485H43.884V18.3395Z" fill="#6A6F73"/>
<path d="M51.8028 20.1631C52.8128 20.1631 53.2945 19.5908 53.2945 18.7685C53.2945 17.9164 52.8128 17.3441 51.8028 17.3441H50.545V20.1631H51.8028ZM55.3133 18.7685C55.3133 20.7658 53.9824 21.8515 51.9636 21.8515H50.545V24.832H48.5571V15.6525H51.9636C53.9824 15.6525 55.3133 16.7389 55.3133 18.7653" fill="#6A6F73"/>
<path d="M59.5701 22.7975V22.2397C59.2776 22.0789 58.898 22.0201 58.5027 22.0201C57.8741 22.0201 57.4939 22.2543 57.4939 22.7829C57.4939 23.3267 57.8741 23.5616 58.4441 23.5616C58.985 23.5616 59.3948 23.2824 59.5701 22.7975ZM59.6287 24.2073C59.2044 24.7214 58.5765 24.9708 57.9025 24.9708C56.6308 24.9708 55.5918 24.1934 55.5918 22.812C55.5918 21.5351 56.6308 20.6836 58.1219 20.6836C58.5897 20.6836 59.0733 20.7571 59.5701 20.9033V20.7868C59.5701 20.0816 59.1754 19.7739 58.1377 19.7739C57.4788 19.7739 56.8502 19.9638 56.3086 20.2728H56.2361V18.7161C56.733 18.423 57.6112 18.1729 58.4731 18.1729C60.4332 18.1729 61.5006 19.1124 61.5006 20.7571V24.8531H59.6287V24.2073Z" fill="#6A6F73"/>
<path d="M62.4453 21.5825C62.4453 19.4826 63.9231 18.1613 65.8537 18.1613C66.5409 18.1613 67.184 18.3082 67.6669 18.6602V20.3195H67.5931C67.1688 19.9966 66.672 19.8054 66.1021 19.8054C65.1368 19.8054 64.4055 20.467 64.4055 21.5825C64.4055 22.6979 65.1368 23.3443 66.1021 23.3443C66.672 23.3443 67.1688 23.1531 67.5931 22.8296H67.6669V24.4889C67.184 24.8415 66.5409 24.9884 65.8537 24.9884C63.9231 24.9884 62.4453 23.6824 62.4453 21.5825Z" fill="#6A6F73"/>
<path d="M70.8181 21.8863V24.8516H68.8882V15.672H70.8181V20.8987L72.7637 18.3145H74.9571V18.3879L72.6174 21.3538L74.9571 24.775V24.8484H72.7486L70.8181 21.8831" fill="#6A6F73"/>
<path d="M79.2911 22.7975V22.2397C78.9992 22.0789 78.6184 22.0201 78.2237 22.0201C77.5952 22.0201 77.215 22.2543 77.215 22.7829C77.215 23.3267 77.5952 23.5616 78.1645 23.5616C78.7067 23.5616 79.1159 23.2824 79.2911 22.7975ZM79.3498 24.2073C78.9255 24.7214 78.2963 24.9708 77.6242 24.9708C76.3512 24.9708 75.3135 24.1934 75.3135 22.812C75.3135 21.5351 76.3512 20.6836 77.8442 20.6836C78.312 20.6836 78.7937 20.7571 79.2911 20.9033V20.7868C79.2911 20.0816 78.8965 19.7739 77.8581 19.7739C77.2005 19.7739 76.5706 19.9638 76.0297 20.2728H75.9566V18.7161C76.454 18.423 77.3316 18.1729 78.1941 18.1729C80.1549 18.1729 81.2223 19.1124 81.2223 20.7571V24.8531H79.3498V24.2073Z" fill="#6A6F73"/>
<path d="M84.4866 19.3534C84.8372 18.6336 85.3497 18.2227 86.0666 18.2227C86.3295 18.2227 86.5924 18.2816 86.6939 18.3405V20.1903H86.6214C86.402 20.1017 86.1391 20.0434 85.7734 20.0434C85.1738 20.0434 84.706 20.3961 84.5446 21.0709V24.8301H82.6147V18.2968H84.4866V19.3534Z" fill="#6A6F73"/>
<path d="M91.8002 22.646V20.5461C91.4787 20.0763 91.055 19.8712 90.5714 19.8712C89.7241 19.8712 89.1535 20.4885 89.1535 21.6039C89.1535 22.7194 89.7241 23.3215 90.5714 23.3215C91.055 23.3215 91.4787 23.1157 91.8002 22.646ZM91.8582 24.1881C91.4491 24.7168 90.8053 25.0099 89.9284 25.0099C88.2608 25.0099 87.1934 23.4835 87.1934 21.6039C87.1934 19.7244 88.2608 18.1828 89.9284 18.1828C90.7763 18.1828 91.3904 18.4475 91.8002 18.9318V15.6873H93.7308V24.8605H91.8582V24.1856" fill="#6A6F73"/>
<path d="M0.759277 27.8615H6.40455V28.9769H2.03158V31.7808H5.99474V32.8677H2.03158V35.9216H6.40455V37.0372H0.759277V27.8639" fill="#6A6F73"/>
<path d="M11.0485 30.4449C12.496 30.4449 13.3005 31.3996 13.3005 32.9696V37.0371H12.0869V32.9994C12.0869 32.1625 11.6626 31.5604 10.7414 31.5604C9.98108 31.5604 9.33737 32.0453 9.11796 32.7348V37.0371H7.9043V30.5798H9.11796V31.5193C9.49814 30.9172 10.1419 30.4475 11.0485 30.4475" fill="#6A6F73"/>
<path d="M16.5464 30.5465H18.1989V31.5892H16.5464V35.0685C16.5464 35.8023 16.9266 36.0523 17.6138 36.0523C17.8035 36.0523 18.0085 36.0232 18.1547 35.9643H18.1989V37.0064C18.0236 37.0798 17.7745 37.1387 17.4385 37.1387C15.9317 37.1387 15.3327 36.448 15.3327 35.1863V31.5892H14.2212V30.5465H15.3327V28.8296H16.5464V30.5465Z" fill="#6A6F73"/>
<path d="M20.2285 33.1797H23.4313C23.3878 32.2256 22.9194 31.4919 21.9251 31.4919C21.004 31.4919 20.4038 32.182 20.2285 33.1797ZM22.1445 37.1737C20.2575 37.1737 18.9707 35.9108 18.9707 33.8849C18.9707 31.8585 20.1699 30.4493 21.9106 30.4493C23.6803 30.4493 24.6015 31.7268 24.6015 33.6203V34.1787H20.1844C20.3161 35.4853 21.1503 36.1165 22.3053 36.1165C23.0221 36.1165 23.5334 35.9551 24.104 35.529H24.1482V36.6014C23.6217 37.0123 22.9339 37.1737 22.1445 37.1737Z" fill="#6A6F73"/>
<path d="M27.2898 31.5581C27.5679 30.8681 28.1826 30.4572 28.8837 30.4572C29.1623 30.4572 29.4108 30.5009 29.5129 30.5598V31.7632H29.4694C29.2935 31.6759 29.0009 31.6316 28.7084 31.6316C28.0508 31.6316 27.4947 32.0715 27.2898 32.8059V37.0196H26.0762V30.5623H27.2898V31.5607" fill="#6A6F73"/>
<path d="M33.3931 36.0667C34.5923 36.0667 35.2946 35.1127 35.2946 33.8054C35.2946 32.5139 34.5923 31.5453 33.3931 31.5453C32.7349 31.5453 32.1208 31.9416 31.7993 32.5722V35.0544C32.1208 35.685 32.7349 36.0667 33.3931 36.0667ZM33.598 30.4438C35.5134 30.4438 36.5373 32.0151 36.5373 33.8054C36.5373 35.5976 35.5134 37.1683 33.598 37.1683C32.808 37.1683 32.1353 36.7574 31.7993 36.3161V39.5176H30.585V30.5786H31.7993V31.3123C32.1353 30.8572 32.808 30.4463 33.598 30.4463" fill="#6A6F73"/>
<path d="M39.1932 31.5581C39.4706 30.8681 40.0853 30.4572 40.787 30.4572C41.065 30.4572 41.3134 30.5009 41.4156 30.5598V31.7632H41.3721C41.1968 31.6759 40.9043 31.6316 40.6117 31.6316C39.9535 31.6316 39.3981 32.0715 39.1932 32.8059V37.0196H37.9795V30.5623H39.1932V31.5607" fill="#6A6F73"/>
<path d="M43.1778 27.9633C43.6021 27.9633 43.9527 28.3007 43.9527 28.7268C43.9527 29.1528 43.6021 29.4902 43.1778 29.4902C42.7686 29.4902 42.4023 29.1528 42.4023 28.7268C42.4023 28.3007 42.7686 27.9633 43.1778 27.9633Z" fill="#6A6F73"/>
<path d="M42.5728 37.0288H43.7873V30.5664H42.5728V37.0288Z" fill="#6A6F73"/>
<path d="M48.121 33.2313C49.0422 33.5244 50.0654 33.9062 50.0654 35.1394C50.0654 36.4612 48.9835 37.1367 47.5946 37.1367C46.746 37.1367 45.898 36.931 45.415 36.5492V35.3894H45.4737C46.0153 35.8883 46.8191 36.1086 47.5795 36.1086C48.2667 36.1086 48.8814 35.844 48.8814 35.2863C48.8814 34.714 48.3701 34.5816 47.3601 34.2442C46.4534 33.9505 45.4447 33.6124 45.4447 32.3944C45.4447 31.146 46.4679 30.4122 47.7699 30.4122C48.5302 30.4122 49.2029 30.5737 49.7439 30.9409V32.1158H49.7004C49.1746 31.6898 48.5592 31.4397 47.7989 31.4397C47.0385 31.4397 46.6142 31.7778 46.6142 32.233C46.6142 32.747 47.082 32.8932 48.121 33.2313Z" fill="#6A6F73"/>
<path d="M52.3579 33.1797H55.5601C55.5166 32.2256 55.0488 31.4919 54.0539 31.4919C53.1327 31.4919 52.5332 32.182 52.3579 33.1797ZM54.2733 37.1737C52.3869 37.1737 51.1001 35.9108 51.1001 33.8849C51.1001 31.8585 52.2993 30.4493 54.0394 30.4493C55.8097 30.4493 56.7302 31.7268 56.7302 33.6203V34.1787H52.3138C52.4455 35.4853 53.279 36.1165 54.434 36.1165C55.1515 36.1165 55.6628 35.9551 56.2328 35.529H56.2769V36.6014C55.7511 37.0123 55.0633 37.1737 54.2733 37.1737Z" fill="#6A6F73"/>
</g>
</g>
</g>
</g>
<defs>
<clipPath id="clip0_1_1542">
<rect width="94" height="40" fill="white"/>
</clipPath>
<clipPath id="clip1_1_1542">
<rect width="94" height="40" fill="white"/>
</clipPath>
<clipPath id="clip2_1_1542">
<rect width="94" height="40" fill="white"/>
</clipPath>
</defs>
</svg>
