<svg width="20" height="20" viewBox="0 0 20 20" fill="none" xmlns="http://www.w3.org/2000/svg">
<g clip-path="url(#clip0_1_1710)">
<path d="M13.3334 8.33325C14.7167 8.33325 15.825 7.21659 15.825 5.83325C15.825 4.44992 14.7167 3.33325 13.3334 3.33325C11.95 3.33325 10.8334 4.44992 10.8334 5.83325C10.8334 7.21659 11.95 8.33325 13.3334 8.33325ZM6.66671 8.33325C8.05004 8.33325 9.15837 7.21659 9.15837 5.83325C9.15837 4.44992 8.05004 3.33325 6.66671 3.33325C5.28337 3.33325 4.16671 4.44992 4.16671 5.83325C4.16671 7.21659 5.28337 8.33325 6.66671 8.33325ZM6.66671 9.99992C4.72504 9.99992 0.833374 10.9749 0.833374 12.9166V16.6666H12.5V12.9166C12.5 10.9749 8.60837 9.99992 6.66671 9.99992ZM13.3334 9.99992C13.0917 9.99992 12.8167 10.0166 12.525 10.0416C13.4917 10.7416 14.1667 11.6833 14.1667 12.9166V16.6666H19.1667V12.9166C19.1667 10.9749 15.275 9.99992 13.3334 9.99992Z" fill="#6A6F73"/>
</g>
<defs>
<clipPath id="clip0_1_1710">
<rect width="20" height="20" fill="white"/>
</clipPath>
</defs>
</svg>
