<svg width="16" height="20" viewBox="0 0 16 20" fill="none" xmlns="http://www.w3.org/2000/svg">
<g clip-path="url(#clip0_1_1794)">
<path d="M11.06 6.84892L6.66665 11.2414L4.27331 8.8552L3.33331 9.79501L6.66665 13.1277L12 7.7954L11.06 6.84892ZM7.99998 3.12964C4.31998 3.12964 1.33331 6.11573 1.33331 9.79501C1.33331 13.4743 4.31998 16.4604 7.99998 16.4604C11.68 16.4604 14.6666 13.4743 14.6666 9.79501C14.6666 6.11573 11.68 3.12964 7.99998 3.12964ZM7.99998 15.1273C5.05331 15.1273 2.66665 12.7411 2.66665 9.79501C2.66665 6.84892 5.05331 4.46271 7.99998 4.46271C10.9466 4.46271 13.3333 6.84892 13.3333 9.79501C13.3333 12.7411 10.9466 15.1273 7.99998 15.1273Z" fill="#19A38C"/>
</g>
<defs>
<clipPath id="clip0_1_1794">
<rect width="16" height="19.59" fill="white"/>
</clipPath>
</defs>
</svg>
