<svg width="16" height="20" viewBox="0 0 16 20" fill="none" xmlns="http://www.w3.org/2000/svg">
<g clip-path="url(#clip0_1_1740)">
<path d="M11.06 6.84892L6.66671 11.2414L4.27337 8.8552L3.33337 9.79501L6.66671 13.1277L12 7.7954L11.06 6.84892ZM8.00004 3.12964C4.32004 3.12964 1.33337 6.11573 1.33337 9.79501C1.33337 13.4743 4.32004 16.4604 8.00004 16.4604C11.68 16.4604 14.6667 13.4743 14.6667 9.79501C14.6667 6.11573 11.68 3.12964 8.00004 3.12964ZM8.00004 15.1273C5.05337 15.1273 2.66671 12.7411 2.66671 9.79501C2.66671 6.84892 5.05337 4.46271 8.00004 4.46271C10.9467 4.46271 13.3334 6.84892 13.3334 9.79501C13.3334 12.7411 10.9467 15.1273 8.00004 15.1273Z" fill="#19A38C"/>
</g>
<defs>
<clipPath id="clip0_1_1740">
<rect width="16" height="19.59" fill="white"/>
</clipPath>
</defs>
</svg>
