<svg width="261" height="28" viewBox="0 0 261 28" fill="none" xmlns="http://www.w3.org/2000/svg">
<g clip-path="url(#clip0_1_1823)">
<g clip-path="url(#clip1_1_1823)">
<g clip-path="url(#clip2_1_1823)">
<path d="M25.2364 13.5716L23.9677 13.4593C22.9719 13.3791 22.5865 12.9775 22.5865 12.3028C22.5865 11.4999 23.1968 11.0018 24.3533 11.0018C25.1724 11.0018 25.895 11.1947 26.4578 11.6283L27.2127 10.8734C26.5053 10.2953 25.4939 10.0224 24.3699 10.0224C22.6835 10.0224 21.4627 10.8889 21.4627 12.335C21.4627 13.6359 22.282 14.3265 23.8238 14.4551L25.1247 14.5674C26.04 14.6479 26.4417 15.0332 26.4417 15.7238C26.4417 16.6554 25.6386 17.1209 24.3372 17.1209C23.3573 17.1209 22.5061 16.8639 21.879 16.2054L21.1079 16.9764C21.9754 17.8115 23.0193 18.1167 24.3524 18.1167C26.2636 18.1167 27.5647 17.2325 27.5647 15.7077C27.5647 14.2296 26.6177 13.7003 25.2364 13.5716ZM35.1246 10.022C33.8568 10.022 33.0581 10.2719 32.3583 11.1579C32.3488 11.1701 33.117 11.917 33.117 11.917C33.5827 11.2585 34.0966 11.0179 35.1083 11.0179C36.5539 11.0179 37.1322 11.596 37.1322 12.7522V13.507H34.7557C32.989 13.507 32.0255 14.4066 32.0255 15.7884C32.0069 16.3807 32.2201 16.9569 32.6197 17.3945C33.1177 17.9086 33.76 18.1173 34.8521 18.1173C35.9121 18.1173 36.4904 17.9086 37.1334 17.2659V18.0207H38.2898V12.656C38.2898 10.9376 37.2464 10.0224 35.1258 10.0224L35.1246 10.022ZM37.1329 15.2265C37.1329 15.8853 37.0043 16.335 36.7313 16.5918C36.2334 17.0737 35.6392 17.1223 34.9647 17.1223C33.7119 17.1223 33.1496 16.6885 33.1496 15.773C33.1496 14.8574 33.7278 14.3759 34.9166 14.3759H37.1329V15.2265ZM42.8184 11.0509C43.5732 11.0509 44.0387 11.2757 44.6332 11.9341C44.6332 11.9341 45.4075 11.1816 45.4011 11.1749C44.5903 10.3075 43.902 10.0231 42.8191 10.0231C40.8274 10.0231 39.3175 11.3721 39.3175 14.0703C39.3175 16.7684 40.8271 18.1178 42.8191 18.1178C43.9112 18.1178 44.6018 17.8285 45.4209 16.9453L44.6339 16.1903C44.0397 16.8489 43.5739 17.0898 42.8191 17.0898C42.096 17.1187 41.4073 16.7803 40.9882 16.1903C40.6188 15.6764 40.4743 15.0661 40.4743 14.0703C40.4743 13.0744 40.6188 12.4641 40.9882 11.9502C41.4072 11.3601 42.0953 11.0218 42.8184 11.0509ZM52.7227 10.1076H51.281L47.698 13.5951L47.7035 6.58496H46.5467V18.0207H47.7033L47.6978 15.1365L49.1004 13.7289L51.751 18.0207H53.1803L49.9016 12.9275L52.7227 10.1076ZM58.0658 9.91308C56.8809 9.91308 56.0803 10.3748 55.5876 10.8981C54.8641 11.6524 54.6795 12.5605 54.6795 14.0075C54.6795 15.4697 54.8641 16.3773 55.5876 17.1322C56.0803 17.6555 56.8805 18.1175 58.0658 18.1175C59.251 18.1175 60.067 17.6555 60.5594 17.1322C61.2828 16.378 61.4677 15.4698 61.4677 14.0075C61.4677 12.5607 61.2828 11.6524 60.5594 10.8981C60.067 10.3748 59.2507 9.91308 58.0658 9.91308ZM59.0049 15.9624C58.754 16.2047 58.4142 16.3327 58.0658 16.3161C57.722 16.3327 57.387 16.2044 57.1423 15.9624C56.7265 15.5468 56.6805 14.8389 56.6805 14.0075C56.6805 13.1761 56.7265 12.4838 57.1423 12.0682C57.387 11.8261 57.722 11.6978 58.0658 11.7145C58.4142 11.6978 58.754 11.8258 59.0049 12.0682C59.4203 12.4838 59.4666 13.1763 59.4666 14.0075C59.4666 14.8387 59.4203 15.5461 59.0049 15.9624ZM66.7959 10.005L65.1799 14.9612L63.5483 10.0047H61.4392L64.3949 18.0243H65.9647L68.9045 10.0047L66.7959 10.005ZM72.3088 9.91273C70.231 9.91273 68.8148 11.3903 68.8148 14.0071C68.8148 17.2551 70.6313 18.1171 72.5244 18.1171C73.9714 18.1171 74.7566 17.6706 75.5722 16.8546L74.3564 15.6697C73.8483 16.1778 73.4171 16.4239 72.5398 16.4239C71.4161 16.4239 70.7851 15.6697 70.7851 14.6378H75.803V13.7456C75.803 11.5443 74.5408 9.91273 72.3088 9.91273ZM70.7851 13.2683C70.788 12.9714 70.8509 12.6782 70.9699 12.4063C71.2221 11.8973 71.7411 11.5753 72.3091 11.5753C72.8772 11.5753 73.3961 11.8973 73.6483 12.4063C73.7669 12.6784 73.8297 12.9715 73.8329 13.2683H70.7851ZM78.7548 10.7747V10.005H76.7997V18.0246H78.8008V13.1915C78.8008 12.1755 79.4781 11.7136 80.0939 11.7136C80.4997 11.6996 80.8893 11.8735 81.1497 12.1851L82.6646 10.667C82.1103 10.1127 81.5563 9.91273 80.7712 9.91273C80.0079 9.90369 79.2756 10.2166 78.7548 10.7747ZM83.2855 9.16908V18.0165H85.2864V11.6934H86.7641V10.1697H85.2864V9.29234C85.2864 8.83059 85.5175 8.56885 85.9938 8.56885H86.7634V6.87588H85.6245C83.9925 6.87588 83.2855 8.03017 83.2855 9.16908ZM95.0017 9.91184C93.8168 9.91184 93.0161 10.3736 92.5235 10.8969C91.8002 11.6512 91.6154 12.5593 91.6154 14.0062C91.6154 15.4684 91.8002 16.376 92.5235 17.131C93.0161 17.6543 93.8165 18.1162 95.0017 18.1162C96.187 18.1162 97.003 17.6543 97.4953 17.131C98.2186 16.3767 98.4034 15.4686 98.4034 14.0062C98.4034 12.5594 98.2186 11.6512 97.4953 10.8969C97.0028 10.3736 96.1866 9.91184 95.0017 9.91184ZM95.9408 15.9611C95.6899 16.2035 95.3501 16.3314 95.0017 16.3148C94.658 16.3315 94.323 16.2032 94.0782 15.9611C93.6626 15.5455 93.6165 14.8376 93.6165 14.0062C93.6165 13.1749 93.6626 12.4825 94.0782 12.0669C94.3229 11.8248 94.6579 11.6965 95.0017 11.7132C95.3501 11.6965 95.69 11.8245 95.9408 12.0669C96.3562 12.4825 96.4026 13.1751 96.4026 14.0062C96.4026 14.8374 96.3562 15.5448 95.9408 15.9611ZM107.857 10.0042L106.564 14.9612L104.917 10.005H103.455L101.824 14.9612L100.531 10.0047H98.4066L100.869 18.0243H102.516L104.194 12.9911L105.872 18.0243H107.519L109.966 10.0047L107.857 10.0042ZM89.7155 15.608V6.87588H87.7152V15.7311C87.7152 16.8701 88.4081 18.0246 90.0549 18.0246H91.1938V16.3313H90.4244C89.9165 16.3313 89.717 16.0851 89.717 15.608H89.7155ZM30.7718 11.3616L31.841 10.2924H29.6517V7.69274H28.4952V15.9007C28.4952 17.073 29.1697 18.0207 30.5189 18.0207H31.3377V17.0249H30.7276C29.9889 17.0249 29.6517 16.5911 29.6517 15.8685V11.3616H30.7718Z" fill="#1E1B1D"/>
<path fill-rule="evenodd" clip-rule="evenodd" d="M15.5627 14.1484H17.508V21.9298H0V14.1484H1.94534V19.9845H15.5627V14.1484Z" fill="#BBBBBB"/>
<path d="M4.06534 13.5698L13.6196 15.578L14.0212 13.668L4.46696 11.659L4.06534 13.5698ZM5.32962 8.99494L14.1802 13.1169L15.0047 11.3468L6.15393 7.22485L5.32962 8.99494ZM7.77863 4.65277L15.282 10.901L16.5316 9.40045L9.02824 3.15238L7.77863 4.65277ZM12.622 0.0341797L11.0551 1.19961L16.8819 9.03402L18.4488 7.86876L12.622 0.0341797ZM3.89062 18.0388H13.6173V16.0935H3.89062V18.0388Z" fill="#F58025"/>
</g>
</g>
</g>
<defs>
<clipPath id="clip0_1_1823">
<rect width="110" height="28" fill="white"/>
</clipPath>
<clipPath id="clip1_1_1823">
<rect width="110" height="28" fill="white"/>
</clipPath>
<clipPath id="clip2_1_1823">
<rect width="110" height="28" fill="white"/>
</clipPath>
</defs>
</svg>
