<svg width="18" height="17" viewBox="0 0 18 17" fill="none" xmlns="http://www.w3.org/2000/svg">
<g clip-path="url(#clip0_1_1879)">
<g clip-path="url(#clip1_1_1879)">
<g clip-path="url(#clip2_1_1879)">
<path d="M17.7545 11.9202C17.7545 9.6315 16.1385 7.86733 13.6195 7.96267C13.8571 4.76808 16.3286 2.00259 17.9921 0.715214L17.5168 0C14.0473 2.19331 9.67465 6.723 9.67465 11.3957C9.67465 14.0658 11.1956 16.0207 13.667 16.0207C16.1385 16.0207 17.7545 14.1135 17.7545 11.9202ZM8.08767 11.9202C8.08767 9.6315 6.4717 7.86733 3.9527 7.96267C4.19034 4.76808 6.6618 2.00259 8.32529 0.715214L7.85003 0C4.38044 2.19331 0.00785178 6.723 0.00785178 11.3957C0.00785178 14.0658 1.52876 16.0207 4.00022 16.0207C6.4717 16.0207 8.08767 14.1135 8.08767 11.9202Z" fill="#1C1D1F"/>
</g>
</g>
</g>
<defs>
<clipPath id="clip0_1_1879">
<rect width="17.77" height="16.09" fill="white" transform="scale(1.01294)"/>
</clipPath>
<clipPath id="clip1_1_1879">
<rect width="17.77" height="16.09" fill="white" transform="scale(1.01294)"/>
</clipPath>
<clipPath id="clip2_1_1879">
<rect width="17.7545" height="16.09" fill="white" transform="translate(0.00785178) scale(1.01294)"/>
</clipPath>
</defs>
</svg>
