<svg width="18" height="17" viewBox="0 0 18 17" fill="none" xmlns="http://www.w3.org/2000/svg">
<g clip-path="url(#clip0_1_1814)">
<g clip-path="url(#clip1_1_1814)">
<g clip-path="url(#clip2_1_1814)">
<path d="M17.7545 11.9202C17.7545 9.6315 16.1386 7.86733 13.6196 7.96267C13.8572 4.76808 16.3287 2.00259 17.9922 0.715214L17.5169 0C14.0473 2.19331 9.67471 6.723 9.67471 11.3957C9.67471 14.0658 11.1956 16.0207 13.6671 16.0207C16.1386 16.0207 17.7545 14.1135 17.7545 11.9202ZM8.08774 11.9202C8.08774 9.6315 6.47177 7.86733 3.95276 7.96267C4.19041 4.76808 6.66187 2.00259 8.32535 0.715214L7.85009 0C4.38051 2.19331 0.00791361 6.723 0.00791361 11.3957C0.00791361 14.0658 1.52882 16.0207 4.00028 16.0207C6.47177 16.0207 8.08774 14.1135 8.08774 11.9202Z" fill="#1C1D1F"/>
</g>
</g>
</g>
<defs>
<clipPath id="clip0_1_1814">
<rect width="17.77" height="16.09" fill="white" transform="scale(1.01294)"/>
</clipPath>
<clipPath id="clip1_1_1814">
<rect width="17.77" height="16.09" fill="white" transform="scale(1.01294)"/>
</clipPath>
<clipPath id="clip2_1_1814">
<rect width="17.7545" height="16.09" fill="white" transform="translate(0.00791361) scale(1.01294)"/>
</clipPath>
</defs>
</svg>
