<svg width="70" height="16" viewBox="0 0 70 16" fill="none" xmlns="http://www.w3.org/2000/svg">
<g clip-path="url(#clip0_1_2036)">
<mask id="mask0_1_2036" style="mask-type:luminance" maskUnits="userSpaceOnUse" x="0" y="1" width="63" height="14">
<path d="M63 1H0V15H63V1Z" fill="white"/>
</mask>
<g mask="url(#mask0_1_2036)">
<g clip-path="url(#clip1_1_2036)">
<path d="M35 11.074L38.605 13.2498L37.6483 9.149L40.8333 6.38984L36.6391 6.034L35 2.1665L33.3608 6.034L29.1666 6.38984L32.3516 9.149L31.395 13.2498L35 11.074Z" stroke="#B4690E" stroke-width="1.16667"/>
</g>
<g clip-path="url(#clip2_1_2036)">
<path d="M49 11.074L52.605 13.2498L51.6483 9.149L54.8333 6.38984L50.6391 6.034L49 2.1665L47.3608 6.034L43.1666 6.38984L46.3516 9.149L45.395 13.2498L49 11.074Z" stroke="#B4690E" stroke-width="1.16667"/>
</g>
<g clip-path="url(#clip3_1_2036)">
<path d="M63 11.074L66.605 13.2498L65.6483 9.149L68.8333 6.38984L64.6391 6.034L63 2.1665L61.3608 6.034L57.1666 6.38984L60.3516 9.149L59.395 13.2498L63 11.074Z" stroke="#B4690E" stroke-width="1.16667"/>
</g>
</g>
<g clip-path="url(#clip4_1_2036)">
<path d="M36 12.074L39.605 14.2498L38.6483 10.149L41.8333 7.38984L37.6391 7.034L36 3.1665L34.3608 7.034L30.1666 7.38984L33.3516 10.149L32.395 14.2498L36 12.074Z" stroke="#B4690E" stroke-width="1.16667"/>
</g>
<g clip-path="url(#clip5_1_2036)">
<path d="M50 12.074L53.605 14.2498L52.6483 10.149L55.8333 7.38984L51.6391 7.034L50 3.1665L48.3608 7.034L44.1666 7.38984L47.3516 10.149L46.395 14.2498L50 12.074Z" stroke="#B4690E" stroke-width="1.16667"/>
</g>
<g clip-path="url(#clip6_1_2036)">
<path d="M64 12.074L67.605 14.2498L66.6483 10.149L69.8333 7.38984L65.6391 7.034L64 3.1665L62.3608 7.034L58.1666 7.38984L61.3516 10.149L60.395 14.2498L64 12.074Z" stroke="#B4690E" stroke-width="1.16667"/>
</g>
</g>
<defs>
<clipPath id="clip0_1_2036">
<rect width="70" height="16" fill="white"/>
</clipPath>
<clipPath id="clip1_1_2036">
<rect width="70" height="14" fill="white" transform="translate(0 1)"/>
</clipPath>
<clipPath id="clip2_1_2036">
<rect width="70" height="14" fill="white" transform="translate(14 1)"/>
</clipPath>
<clipPath id="clip3_1_2036">
<rect width="70" height="14" fill="white" transform="translate(28 1)"/>
</clipPath>
<clipPath id="clip4_1_2036">
<rect width="70" height="14" fill="white" transform="translate(1 2)"/>
</clipPath>
<clipPath id="clip5_1_2036">
<rect width="70" height="14" fill="white" transform="translate(15 2)"/>
</clipPath>
<clipPath id="clip6_1_2036">
<rect width="70" height="14" fill="white" transform="translate(29 2)"/>
</clipPath>
</defs>
</svg>
