<svg width="275" height="48" viewBox="0 0 275 48" fill="none" xmlns="http://www.w3.org/2000/svg">
<g clip-path="url(#clip0_1_2174)">
<g clip-path="url(#clip1_1_2174)">
<g clip-path="url(#clip2_1_2174)">
<mask id="mask0_1_2174" style="mask-type:luminance" maskUnits="userSpaceOnUse" x="0" y="0" width="275" height="48">
<path d="M274.5 0H0V48H274.5V0Z" fill="white"/>
</mask>
<g mask="url(#mask0_1_2174)">
<path fill-rule="evenodd" clip-rule="evenodd" d="M2.90797 31.6567V24.2326H7.39172C8.5111 24.2326 9.77235 24.2327 10.6127 24.9327C11.5933 25.6327 12.153 26.8939 12.153 28.0148C12.153 29.1358 11.7336 30.1164 10.8933 30.8164C10.053 31.5164 8.79172 31.6567 7.67078 31.6567H2.90797ZM2.90797 22.4117V15.828H7.39172C8.37234 15.828 9.2111 15.828 10.053 16.2489C11.0336 16.8086 11.5933 17.7892 11.5933 18.9101C11.5933 19.8908 11.0336 21.0102 10.332 21.5714C9.35141 22.4117 7.95141 22.4117 6.69016 22.4117H2.90797ZM7.8111 33.618C9.63203 33.618 11.1723 33.4777 12.5739 32.3567C13.9739 31.2373 14.5352 29.8358 14.5352 28.1552C14.5352 25.6327 12.8545 23.6714 10.4723 23.1117C12.5739 22.552 13.9739 20.8714 13.9739 18.7698C13.9739 17.0892 13.1336 15.6876 11.8739 14.8473C10.4723 14.007 9.35141 13.8667 7.8111 13.8667H0.527344V33.618H7.8111Z" fill="#100E0D"/>
<path fill-rule="evenodd" clip-rule="evenodd" d="M19.1577 26.1937C19.1577 24.9325 19.298 23.5325 19.8577 22.5519C20.5577 21.2906 21.8189 20.4503 23.2205 20.4503C24.4802 20.4503 25.7414 21.1503 26.4414 22.1309C27.1414 23.3922 27.2817 24.7922 27.2817 26.1937C27.2817 27.4534 27.1414 28.7147 26.5817 29.9759C25.8817 31.2372 24.7608 32.0775 23.2205 32.0775C21.8189 32.0775 20.5577 31.3759 19.998 30.2566C19.298 28.9953 19.1577 27.4534 19.1577 26.1937ZM16.6367 26.1937C16.6367 29.9759 18.598 33.8984 22.9398 33.8984C27.422 33.8984 29.8027 30.2566 29.8027 26.1937C29.8027 22.4116 27.7027 18.6294 23.3608 18.6294C19.0173 18.6294 16.6367 22.1309 16.6367 26.1937Z" fill="#100E0D"/>
<path fill-rule="evenodd" clip-rule="evenodd" d="M34.4248 26.1937C34.4248 24.9325 34.5652 23.5325 35.1248 22.5519C35.6845 21.2906 37.0861 20.4503 38.4861 20.4503C39.7473 20.4503 40.8683 21.1503 41.5683 22.1309C42.4086 23.3922 42.5489 24.7922 42.5489 26.1937C42.5489 27.4534 42.4086 28.7147 41.8489 29.9759C41.1474 31.2372 39.8877 32.0775 38.4861 32.0775C37.0861 32.0775 35.8248 31.3759 35.2652 30.2566C34.5652 28.9953 34.4248 27.4534 34.4248 26.1937ZM31.9023 26.1937C31.9023 29.9759 33.8636 33.8984 38.207 33.8984C42.6892 33.8984 44.9311 30.2566 44.9311 26.1937C44.9311 22.4116 42.8295 18.6294 38.6264 18.6294C34.2845 18.6294 31.9023 22.1309 31.9023 26.1937Z" fill="#100E0D"/>
<path fill-rule="evenodd" clip-rule="evenodd" d="M57.1173 20.31L49.1336 31.7969H57.1173V33.6179H46.332V31.7969L54.177 20.731H47.032V19.0488H57.1173V20.31Z" fill="#100E0D"/>
<path d="M69.8672 40.0604H71.6881V9.6626H69.8672V40.0604Z" fill="#100E0D"/>
<path fill-rule="evenodd" clip-rule="evenodd" d="M93.5411 25.9133H87.517L90.4589 16.528L93.5411 25.9133ZM91.9992 13.8667H89.338L82.8945 33.618H84.9961L86.817 27.8745H94.1008L96.062 33.618H98.4427L91.9992 13.8667Z" fill="#100E0D"/>
<path fill-rule="evenodd" clip-rule="evenodd" d="M115.112 24.7922C115.112 22.5519 116.793 20.31 119.314 20.31C121.836 20.31 123.377 22.4116 123.236 24.7922H115.112ZM123.377 29.2759C122.677 30.9566 121.275 32.0775 119.454 32.0775C117.914 32.0775 116.232 31.0969 115.532 29.6953C114.972 28.7147 114.972 27.5937 114.972 26.4744H125.617C125.757 22.4116 123.798 18.6294 119.314 18.6294C114.972 18.6294 112.59 22.2713 112.59 26.3341C112.59 30.3953 114.832 33.8984 119.174 33.8984C121.975 33.8984 124.498 32.2178 125.478 29.555L123.377 29.2759Z" fill="#100E0D"/>
<path fill-rule="evenodd" clip-rule="evenodd" d="M130.941 21.431H131.082C131.782 19.8907 133.603 18.6294 135.564 18.6294C137.385 18.6294 138.786 19.3294 139.767 20.8713C140.467 22.131 140.327 24.0922 140.327 25.4938V33.6179H138.085V24.5132C138.085 23.6713 138.225 22.6907 137.806 21.8519C137.245 21.0101 136.264 20.5907 135.283 20.5907C134.024 20.5907 133.043 21.1504 132.201 21.9907C131.361 23.1116 131.082 24.5132 131.082 25.9132V33.6179H128.84V19.0488H130.941V21.431Z" fill="#100E0D"/>
<path fill-rule="evenodd" clip-rule="evenodd" d="M265.136 21.431C265.836 19.8907 267.657 18.6294 269.619 18.6294C271.44 18.6294 272.84 19.3294 273.822 20.8713C274.522 22.131 274.522 24.0922 274.522 25.4938V33.6179H272.28V24.5132C272.28 23.6713 272.28 22.6907 271.86 21.8519C271.299 21.0101 270.319 20.5907 269.338 20.5907C268.217 20.5907 267.098 21.1504 266.398 21.9907C265.417 23.1116 265.136 24.5132 265.136 25.9132V33.6179H262.895V19.0488H265.136V21.431Z" fill="#100E0D"/>
<path d="M153.211 40.0604H155.032V9.6626H153.211V40.0604Z" fill="#100E0D"/>
<path fill-rule="evenodd" clip-rule="evenodd" d="M180.386 33.618V24.0923H171.281V33.618H169.039V13.8667H171.281V22.2714H180.386V13.8667H182.766V33.618H180.386Z" fill="#100E0D"/>
<path fill-rule="evenodd" clip-rule="evenodd" d="M195.798 27.1744C195.798 29.6953 193.977 32.0775 191.316 32.0775C189.493 32.0775 188.093 31.3759 188.093 29.555C188.093 26.6147 191.316 26.1937 193.977 26.1937H195.798V27.1744ZM193.977 24.5131C192.156 24.5131 190.055 24.6519 188.513 25.3534C186.973 26.0534 185.852 27.7341 185.852 29.4147C185.852 32.3566 188.093 33.8984 190.895 33.8984C193.135 33.8984 194.817 32.9178 195.798 30.8163L196.077 33.6178H198.319C198.038 32.6372 197.9 31.5163 197.9 30.5356V24.7922C197.9 23.2519 197.9 21.2906 196.779 20.0294C195.658 18.7697 193.977 18.6294 192.435 18.6294C189.774 18.6294 186.693 19.61 186.272 22.6906L188.234 22.9712C188.653 21.01 190.474 20.4503 192.156 20.4503C194.677 20.4503 195.798 21.2906 195.798 23.9519V24.5131H193.977Z" fill="#100E0D"/>
<path fill-rule="evenodd" clip-rule="evenodd" d="M203.922 19.0488V21.5713C204.622 20.0294 206.304 18.6294 208.265 18.6294C210.365 18.6294 212.046 20.1697 212.327 21.8519C213.167 20.0294 214.848 18.6294 217.089 18.6294C218.63 18.6294 220.031 19.4697 220.731 20.731C221.431 21.9907 221.431 23.5325 221.431 24.9326V33.6179H219.191V24.9326C219.191 23.9519 219.191 22.831 218.77 21.9907C218.351 21.01 217.37 20.4504 216.389 20.4504C215.268 20.4504 214.148 21.1504 213.588 22.131C212.748 23.2519 212.748 24.3729 212.748 25.7729V33.6179H210.506V24.3729C210.506 23.5325 210.506 22.5519 210.085 21.8519C209.525 21.0101 208.544 20.4504 207.564 20.4504C206.583 20.4504 205.603 21.1504 204.903 21.8519C204.203 22.831 204.062 24.0922 204.062 25.2132V33.6179H201.82V19.0488H203.922Z" fill="#100E0D"/>
<path fill-rule="evenodd" clip-rule="evenodd" d="M225.496 19.0484H227.738V33.6159H225.496V19.0484ZM225.355 13.8662H227.876V16.3871H225.355V13.8662Z" fill="#100E0D"/>
<path d="M232.359 33.618H234.461V13.8667H232.359V33.618Z" fill="#100E0D"/>
<path d="M100.684 33.618H102.785V13.8667H100.684V33.618Z" fill="#100E0D"/>
<path d="M107.406 33.618H109.508V13.8667H107.406V33.618Z" fill="#100E0D"/>
<path fill-rule="evenodd" clip-rule="evenodd" d="M245.805 33.6174L243.705 33.898C240.482 33.898 239.501 31.9368 239.501 29.1352V20.7305H236.98V18.9096H239.501V15.2677L241.743 15.1274V18.9096H244.964V20.7305H241.743V29.4143C241.743 31.0965 242.303 32.0771 244.124 32.0771L245.805 31.9368V33.6174Z" fill="#100E0D"/>
<path fill-rule="evenodd" clip-rule="evenodd" d="M249.448 26.1937C249.448 24.9325 249.587 23.5325 250.148 22.5519C250.708 21.2906 251.969 20.4503 253.369 20.4503C254.771 20.4503 255.892 21.1503 256.592 22.1309C257.432 23.3922 257.572 24.7922 257.572 26.1937C257.572 27.4534 257.432 28.7147 256.872 29.9759C256.171 31.2372 254.911 32.0775 253.369 32.0775C252.11 32.0775 250.848 31.3759 250.289 30.2566C249.587 28.9953 249.448 27.4534 249.448 26.1937ZM246.926 26.1937C246.926 29.9759 248.887 33.8984 253.229 33.8984C257.713 33.8984 259.953 30.2566 259.953 26.1937C259.953 22.4116 257.853 18.6294 253.65 18.6294C249.168 18.6294 246.926 22.1309 246.926 26.1937Z" fill="#100E0D"/>
</g>
</g>
</g>
</g>
<defs>
<clipPath id="clip0_1_2174">
<rect width="275" height="48" fill="white"/>
</clipPath>
<clipPath id="clip1_1_2174">
<rect width="275" height="48" fill="white"/>
</clipPath>
<clipPath id="clip2_1_2174">
<rect width="275" height="48" fill="white"/>
</clipPath>
</defs>
</svg>
