<svg width="552" height="68" viewBox="0 0 552 68" fill="none" xmlns="http://www.w3.org/2000/svg">
<g clip-path="url(#clip0_1_2230)">
<g clip-path="url(#clip1_1_2230)">
<mask id="mask0_1_2230" style="mask-type:luminance" maskUnits="userSpaceOnUse" x="5" y="19" width="106" height="30">
<path d="M111 19H5V49H111V19Z" fill="white"/>
</mask>
<g mask="url(#mask0_1_2230)">
<path d="M83.1644 41.7235C79.5447 41.7235 77.2954 39.633 77.2954 36.2635C77.2954 32.7664 79.371 30.5907 82.713 30.5907H82.9934C83.4126 30.5907 83.9898 30.6044 84.7783 30.7025V26.4814H87.1391V41.343C87.1391 41.343 84.896 41.7235 83.1644 41.7235ZM83.1432 32.4439C80.8563 32.4439 79.7444 33.6746 79.7444 36.2048C79.7444 38.4766 81.0861 39.8887 83.2417 39.8887C83.6561 39.8887 84.1307 39.8614 84.7776 39.8062V32.5953C84.1314 32.4916 83.6103 32.4439 83.1432 32.4439ZM50.8276 41.3825L44.4505 30.2873L44.4484 41.3825H42.2258V27.3364H45.3374L51.7145 38.3328L51.7118 27.3364H53.9638V41.3825H50.8276ZM71.1406 41.5987C70.0669 41.5987 68.9474 41.4787 67.6145 41.223L67.4702 41.1957V39.2335L67.6809 39.2785C68.8564 39.5287 69.8713 39.7421 70.8869 39.7421C71.7068 39.7421 73.6169 39.6139 73.6169 38.4105C73.6169 37.4014 72.297 37.1478 71.237 36.9453L71.17 36.9316C70.9717 36.8948 70.785 36.8573 70.6277 36.8178C69.0725 36.4155 67.4135 35.8107 67.4135 33.7332C67.4135 31.7069 69.0219 30.5457 71.8272 30.5457C73.1737 30.5457 74.151 30.6889 74.9367 30.8062L75.3183 30.8621V32.7664L75.1152 32.7296C74.2262 32.5666 73.184 32.3989 72.1821 32.3989C71.0681 32.3989 69.7462 32.6069 69.7462 33.5948C69.7462 34.415 70.828 34.6496 72.0809 34.9216C73.833 35.2994 76.005 35.7739 76.005 38.1575C76.005 40.3441 74.2337 41.5987 71.1406 41.5987ZM93.7664 41.5987C91.323 41.5987 89.06 41.1691 89.06 38.0587C89.06 34.6735 92.5594 34.6735 94.6514 34.6735C94.8593 34.6735 95.8427 34.7191 96.1443 34.7321C96.1415 32.8332 96.1176 32.3805 93.3554 32.3805C92.2606 32.3805 91.0446 32.596 89.971 32.7882L89.7658 32.825V30.95L89.9039 30.9207C91.1486 30.6685 92.3488 30.5457 93.5722 30.5457C96.2489 30.5457 98.5166 30.8144 98.5166 34.1253V41.3457L98.3539 41.3641C96.4999 41.5714 95.0275 41.5987 93.7664 41.5987ZM94.5926 36.3487C92.5751 36.3487 91.325 36.6446 91.325 38.1173C91.325 39.8219 92.9198 39.963 94.4161 39.963C94.9742 39.963 95.9788 39.8914 96.2858 39.8696V36.4073C95.8536 36.3889 94.7286 36.3487 94.5926 36.3487ZM60.6418 41.5987C58.1949 41.5987 55.9327 41.1691 55.9327 38.0587C55.9327 34.6735 59.432 34.6735 61.5233 34.6735C61.7319 34.6735 62.7173 34.7191 63.0196 34.7321C63.0169 32.8332 62.9902 32.3805 60.2281 32.3805C59.1325 32.3805 57.9166 32.596 56.8429 32.7882L56.6377 32.825V30.95L56.7793 30.9207C57.9852 30.6721 59.2134 30.5465 60.4448 30.5457C63.1208 30.5457 65.3892 30.8144 65.3892 34.1253V41.3457L65.2258 41.3641C63.3725 41.5714 61.9001 41.5987 60.6418 41.5987ZM61.4645 36.3487C59.4478 36.3487 58.2004 36.6446 58.2004 38.1173C58.2004 39.8219 59.7924 39.963 61.2887 39.963C61.8495 39.963 62.8541 39.8914 63.1612 39.8696V36.4073C62.7255 36.3889 61.6006 36.3487 61.4645 36.3487Z" fill="#D1D7DC"/>
<mask id="mask1_1_2230" style="mask-type:alpha" maskUnits="userSpaceOnUse" x="100" y="29" width="11" height="18">
<path d="M100.058 29.9087H110.335V46.2723H100.058V29.9087Z" fill="#D1D7DC"/>
</mask>
<g mask="url(#mask1_1_2230)">
<path d="M107.917 46.155V41.5473C106.996 41.6755 106.507 41.6755 106.112 41.6755C105.176 41.6755 104.137 41.473 103.333 41.1348C101.532 40.3882 100.459 38.4928 100.459 36.0607C100.459 34.8471 100.756 32.6278 102.74 31.4319C103.737 30.8387 104.912 30.585 106.681 30.585C107.313 30.585 108.168 30.6328 108.994 30.6805L110.335 30.75V45.0873L107.917 46.155ZM106.504 32.4389C104.105 32.4382 102.889 33.6587 102.889 36.0607C102.889 39.1535 104.703 39.8032 106.228 39.8032C106.599 39.8032 107.016 39.8032 107.94 39.686V32.5057C107.217 32.458 106.882 32.4389 106.504 32.4389Z" fill="#D1D7DC"/>
</g>
<mask id="mask2_1_2230" style="mask-type:alpha" maskUnits="userSpaceOnUse" x="22" y="19" width="19" height="23">
<path d="M22.0968 19.0107H40.5613V41.4998H22.0968V19.0107Z" fill="#D1D7DC"/>
</mask>
<g mask="url(#mask2_1_2230)">
<path d="M31.6792 19.0107L23.8707 40.3993C23.7742 40.6627 23.6052 40.8936 23.3832 41.0657C23.1611 41.2378 22.8949 41.344 22.6151 41.3723V41.3825H30.8695C31.5157 41.3825 32.069 40.9728 32.2748 40.4L40.086 19.0107H31.6792Z" fill="#D1D7DC"/>
</g>
<path d="M21.9414 41.0581C22.4201 41.0581 22.8394 40.8208 23.0958 40.4615C23.1225 40.424 23.2162 40.2931 23.2825 40.1151L26.1466 32.266L24.4711 27.6822C24.3735 27.4501 24.2154 27.2482 24.0132 27.0975C23.811 26.9467 23.5721 26.8527 23.3212 26.825C23.0703 26.7973 22.8165 26.837 22.5862 26.94C22.3558 27.043 22.1573 27.2056 22.0112 27.4108C21.9838 27.4483 21.8724 27.6154 21.8245 27.7572L18.9604 35.6035L20.6434 40.2058C20.7526 40.4588 20.9337 40.6743 21.1644 40.8258C21.3951 40.9772 21.6652 41.058 21.9414 41.0581Z" fill="#D1D7DC"/>
<mask id="mask3_1_2230" style="mask-type:alpha" maskUnits="userSpaceOnUse" x="4" y="25" width="19" height="24">
<path d="M4.3161 25.8179H22.7806V48.8613H4.3161V25.8179Z" fill="#D1D7DC"/>
</mask>
<g mask="url(#mask3_1_2230)">
<path d="M22.5536 26.4888H14.2083C13.5621 26.4888 13.0088 26.8965 12.8002 27.472L4.99176 48.8606H13.3986L21.2077 27.4727C21.3091 27.1944 21.4911 26.9525 21.7308 26.7778C21.9705 26.603 22.2569 26.5034 22.5536 26.4915V26.4888Z" fill="#D1D7DC"/>
</g>
</g>
</g>
</g>
<g clip-path="url(#clip2_1_2230)">
<g clip-path="url(#clip3_1_2230)">
<path fill-rule="evenodd" clip-rule="evenodd" d="M160.921 16C164.466 16 167.931 17.0511 170.878 19.0203C173.825 20.9895 176.122 23.7884 177.478 27.0631C178.835 30.3378 179.19 33.9412 178.498 37.4175C177.807 40.8939 176.1 44.0872 173.593 46.5935C171.087 49.0999 167.894 50.8066 164.417 51.4981C160.941 52.1897 157.338 51.8347 154.063 50.4783C150.788 49.1219 147.989 46.8249 146.02 43.8777C144.051 40.9307 143 37.4658 143 33.9213C143.021 29.1747 144.915 24.6283 148.272 21.2719C151.628 17.9155 156.175 16.0207 160.921 16ZM160.921 18.25C157.831 18.2567 154.813 19.1786 152.246 20.8995C149.68 22.6203 147.681 25.0629 146.501 27.9188C145.322 30.7748 145.015 33.9162 145.62 36.9465C146.224 39.9767 147.713 42.7599 149.898 44.9449C152.083 47.1298 154.866 48.6184 157.896 49.2228C160.926 49.8273 164.068 49.5205 166.924 48.3411C169.78 47.1617 172.222 45.1627 173.943 42.5962C175.664 40.0299 176.586 37.0112 176.592 33.9213C176.584 29.7698 174.929 25.7913 171.991 22.8578C169.054 19.9244 165.073 18.2755 160.921 18.2725V18.25ZM150.459 25.5062C151.507 24.2012 152.789 23.1026 154.239 22.2663L158.188 33.145H163.745L167.671 22.3113C169.023 23.1059 170.226 24.1299 171.226 25.3375L165.601 40.0525L163.509 34.7425H158.12L156.061 40.0525L150.459 25.5062ZM173.487 29.1625C174.632 32.2416 174.614 35.6324 173.438 38.6995C172.262 41.7665 170.007 44.2995 167.097 45.8238L173.487 29.1625ZM164.308 46.915C162.013 47.5033 159.606 47.4839 157.321 46.8588V46.5775L160.786 37.5775L164.24 46.5775L164.308 46.915ZM154.475 45.6775C152.363 44.5249 150.6 42.8253 149.371 40.7569C148.141 38.6884 147.491 36.3274 147.489 33.9213C147.477 32.3879 147.736 30.8645 148.254 29.4213L154.475 45.6775ZM160.921 20.4888C162.079 20.4863 163.232 20.6337 164.353 20.9275L160.978 30.31L157.603 20.9163C158.686 20.6341 159.801 20.4905 160.921 20.4888Z" fill="#D1D7DC"/>
</g>
</g>
<g clip-path="url(#clip4_1_2230)">
<g clip-path="url(#clip5_1_2230)">
<path d="M241.252 27.8653C237.207 27.8653 233.686 30.1412 231.913 33.4824C230.139 30.1412 226.62 27.8653 222.571 27.8653C220.194 27.8653 217.998 28.6518 216.226 29.9799V21.0723C216.205 19.9213 215.266 19 214.111 19C212.956 19 212.026 19.9213 212 21.0723V38.6129H212.002C212.095 44.3721 216.789 49.0117 222.571 49.0117C226.62 49.0117 230.139 46.7337 231.913 43.3958C233.686 46.7337 237.207 49.0117 241.252 49.0117C247.09 49.0117 251.825 44.2783 251.825 38.4364C251.825 32.5975 247.09 27.8653 241.252 27.8653ZM222.571 44.7786C219.068 44.7786 216.226 41.941 216.226 38.4379C216.226 34.936 219.068 32.0981 222.571 32.0981C226.074 32.0981 228.911 34.936 228.911 38.4364C228.911 41.9401 226.074 44.7786 222.571 44.7786ZM241.252 44.7786C237.749 44.7786 234.908 41.9401 234.908 38.4364C234.908 34.936 237.749 32.0981 241.252 32.0981C244.755 32.0981 247.594 34.936 247.594 38.4364C247.594 41.9401 244.755 44.7786 241.252 44.7786Z" fill="#D1D7DC"/>
<path d="M268.231 45.4717L262.484 38.4226L268.238 31.3599C268.965 30.4282 268.756 29.1271 267.752 28.436C266.747 27.7389 265.336 27.9175 264.558 28.8215V28.8203L259.608 34.8873L254.662 28.8203V28.8215C253.892 27.9175 252.472 27.7389 251.47 28.436C250.467 29.1277 250.258 30.4282 250.989 31.3599H250.987L256.731 38.4226L250.987 45.4717H250.989C250.258 46.4064 250.467 47.7032 251.47 48.3973C252.472 49.0915 253.892 48.9147 254.662 48.0094L259.608 41.9509L264.551 48.0094C265.33 48.9147 266.74 49.0915 267.746 48.3973C268.75 47.7032 268.96 46.4064 268.231 45.4717Z" fill="#D1D7DC"/>
</g>
</g>
<g clip-path="url(#clip6_1_2230)">
<g clip-path="url(#clip7_1_2230)">
<path d="M303 25V40.0195H309.982V31.0077H313.972V40.0195H320.954V25H303Z" fill="#D1D7DC"/>
<path d="M327.342 25V40.2065H330.631V30.6024L337.92 40.2065H340.734V25H337.475V34.3966L330.394 25H327.342ZM368.793 25L362.482 40.2065H365.86L367.253 36.8272H373.238L374.63 40.2065H378.067L371.786 25H368.793ZM355.697 25.7114V28.646H354.334V31.462H355.697V36.9162C355.697 39.5887 357.073 40.3843 359.075 40.3843C360.174 40.3843 360.964 40.1424 361.653 39.7322V37.094C361.177 37.3561 360.626 37.509 360.023 37.509C359.292 37.509 358.986 37.1367 358.986 36.3826V31.462H361.682V28.646H358.986V25.7114H355.697ZM348.053 28.4385C344.692 28.4385 342.334 31.1597 342.334 34.4559V34.4855C342.334 38.02 344.91 40.4732 348.379 40.4732C350.467 40.4732 352.015 39.6456 353.09 38.3094L351.223 36.6494C350.318 37.4912 349.507 37.8351 348.408 37.8351C346.942 37.8351 345.92 37.0691 345.594 35.5823H353.623C353.648 35.2811 353.653 34.9515 353.653 34.693C353.653 31.4181 351.907 28.4385 348.053 28.4385ZM385.771 28.4385C384.069 28.4385 382.952 29.2293 382.156 30.306V28.646H378.897V43.645H382.156V38.6947C382.931 39.6219 384.027 40.4139 385.771 40.4139C388.507 40.4139 391.015 38.3141 391.015 34.4559V34.3966C391.015 30.5395 388.465 28.4385 385.771 28.4385ZM399.222 28.4385C397.522 28.4385 396.434 29.2293 395.637 30.306V28.646H392.348V43.645H395.637V38.6947C396.411 39.6219 397.477 40.4139 399.222 40.4139C401.958 40.4139 404.467 38.3141 404.467 34.4559V34.3966C404.467 30.5395 401.915 28.4385 399.222 28.4385ZM404.141 28.646V29.0017H404.852V31.2249H405.237V29.0017H405.978V28.646H404.141ZM406.452 28.646V31.2249H406.837V29.0906L407.607 31.2249H407.844L408.615 29.0906V31.2249H409V28.646H408.407L407.726 30.6024L407.044 28.646H406.452ZM370.245 29.0017L372.23 33.8927H368.23L370.245 29.0017ZM348.053 31.0767C349.43 31.0767 350.289 32.0394 350.482 33.5073H345.534C345.793 32.0228 346.693 31.0767 348.053 31.0767ZM384.912 31.2249C386.439 31.2249 387.726 32.4793 387.726 34.3966V34.4559C387.726 36.3957 386.439 37.6276 384.912 37.6276C383.384 37.6276 382.126 36.3743 382.126 34.4559V34.3966C382.126 32.4793 383.384 31.2249 384.912 31.2249ZM398.393 31.2249C399.923 31.2249 401.208 32.4793 401.208 34.3966V34.4559C401.208 36.3957 399.923 37.6276 398.393 37.6276C396.866 37.6276 395.578 36.3743 395.578 34.4559V34.3966C395.578 32.4793 396.866 31.2249 398.393 31.2249Z" fill="#D1D7DC"/>
</g>
</g>
<g clip-path="url(#clip8_1_2230)">
<g clip-path="url(#clip9_1_2230)">
<mask id="mask4_1_2230" style="mask-type:luminance" maskUnits="userSpaceOnUse" x="442" y="22" width="106" height="19">
<path d="M548 22H442V40.9265H548V22Z" fill="white"/>
</mask>
<g mask="url(#mask4_1_2230)">
<path d="M504.265 22V29.4433C504.968 28.9646 505.759 28.6292 506.592 28.4563C507.425 28.2834 508.283 28.2765 509.119 28.4359C509.954 28.5953 510.75 28.9179 511.461 29.3853C512.172 29.8526 512.783 30.4556 513.261 31.1595L513.338 31.2656C514.06 32.3948 514.392 33.7298 514.282 35.0657C514.172 36.4016 513.627 37.6645 512.731 38.6607C511.712 39.8355 510.292 40.5884 508.749 40.7722C507.992 40.9024 507.217 40.879 506.47 40.7035C505.723 40.5279 505.019 40.2037 504.4 39.7502C504.313 40.0202 504.256 40.2323 504.178 40.483H501.286V22.6846L504.265 22ZM511.332 34.592C511.355 33.8888 511.168 33.1948 510.797 32.5976C510.425 32.0004 509.884 31.5269 509.243 31.2369C508.602 30.9468 507.89 30.8533 507.196 30.9682C506.502 31.083 505.857 31.401 505.344 31.882C504.831 32.3631 504.471 32.9855 504.312 33.6706C504.152 34.3557 504.199 35.0728 504.447 35.7313C504.695 36.3897 505.132 36.9599 505.704 37.3697C506.275 37.7796 506.956 38.0108 507.659 38.034H507.736C508.666 38.0421 509.562 37.6869 510.234 37.044C510.906 36.401 511.3 35.5212 511.332 34.592Z" fill="#D1D7DC"/>
<path d="M445.471 36.5202C445.728 36.9062 446.059 37.2375 446.445 37.4951C446.831 37.7527 447.264 37.9314 447.719 38.021C448.175 38.1106 448.643 38.1093 449.098 38.0172C449.552 37.9251 449.984 37.744 450.369 37.4843C450.567 37.3527 450.751 37.2009 450.918 37.0312C451.035 36.8819 451.195 36.7727 451.377 36.7191C451.558 36.6655 451.752 36.6701 451.931 36.7323C452.635 36.9251 453.348 37.089 454.245 37.3108C453.869 37.8918 453.454 38.4459 453.001 38.9691C452.18 39.8391 451.127 40.4545 449.966 40.7418C448.805 41.029 447.586 40.9759 446.454 40.5889C445.302 40.2678 444.269 39.6134 443.487 38.7077C442.705 37.802 442.208 36.6854 442.058 35.4982C441.85 33.9245 442.243 32.3305 443.158 31.0334C444.073 29.7363 445.442 28.8313 446.994 28.4983C447.817 28.3043 448.671 28.2754 449.505 28.4131C450.34 28.5508 451.139 28.8525 451.856 29.3007C452.573 29.749 453.194 30.3349 453.684 31.0246C454.173 31.7143 454.521 32.4942 454.708 33.3191C454.703 33.3737 454.703 33.4285 454.708 33.4831C454.9 34.3604 454.872 34.4472 453.975 34.6208L446.02 36.4045C445.832 36.4084 445.645 36.4477 445.471 36.5202ZM444.892 34.129L451.256 32.6828C450.887 32.0898 450.342 31.6265 449.698 31.3569C449.053 31.0874 448.341 31.0251 447.66 31.1787C446.937 31.2965 446.275 31.6496 445.774 32.1832C445.274 32.7168 444.964 33.4009 444.892 34.129Z" fill="#D1D7DC"/>
<path d="M538.802 36.5201C539.279 37.2575 540.016 37.7882 540.866 38.0062C541.717 38.2242 542.619 38.1136 543.391 37.6964C543.673 37.5689 543.926 37.3852 544.134 37.1564C544.519 36.5972 544.973 36.6551 545.522 36.819C546.072 36.9829 546.785 37.1179 547.45 37.2818C546.974 38.3463 546.197 39.2479 545.214 39.8754C543.785 40.814 542.042 41.1473 540.368 40.802C538.694 40.4567 537.226 39.4611 536.285 38.0338C535.823 37.368 535.495 36.6178 535.321 35.8259C535.171 35.0065 535.184 34.1655 535.36 33.3513C535.536 32.537 535.871 31.7655 536.346 31.081C536.821 30.3966 537.426 29.8127 538.127 29.3628C538.828 28.913 539.611 28.606 540.431 28.4597H540.643C542.081 28.2501 543.547 28.5273 544.808 29.2471C546.07 29.967 547.054 31.0881 547.605 32.432C547.758 32.9226 547.884 33.4216 547.981 33.9265C548.077 34.3218 547.894 34.4953 547.489 34.5821C544.78 35.1799 542.07 35.797 539.361 36.414L538.802 36.5201ZM544.587 32.6634C544.136 31.9618 543.446 31.4466 542.646 31.2128C541.845 30.9789 540.987 31.0421 540.229 31.3907C539.004 31.9307 538.088 33.1937 538.301 34.0807L544.587 32.6634Z" fill="#D1D7DC"/>
<path d="M469.884 36.5205C470.135 37.3979 471.716 38.2367 473.008 38.0921C473.94 38.0131 474.81 37.5904 475.448 36.9062C475.519 36.8307 475.606 36.7718 475.703 36.7335C475.799 36.6951 475.903 36.6784 476.007 36.6844C476.826 36.8387 477.636 37.0411 478.552 37.2436C478.127 38.1808 477.462 38.989 476.624 39.5865C475.953 40.0993 475.187 40.475 474.371 40.6919C473.555 40.9089 472.704 40.963 471.867 40.8511C471.03 40.7392 470.223 40.4635 469.492 40.0397C468.762 39.6159 468.122 39.0524 467.609 38.3813C466.988 37.5731 466.572 36.6272 466.394 35.6238C466.129 34.0065 466.507 32.3496 467.448 31.0074C468.388 29.6652 469.816 28.744 471.427 28.4408C473.082 28.0978 474.806 28.4233 476.222 29.3463C477.638 30.2693 478.632 31.7149 478.986 33.3677C479.198 34.3318 479.169 34.3318 478.263 34.5729L470.424 36.3469L469.884 36.5205ZM475.669 32.6638C475.25 32.017 474.627 31.5279 473.9 31.2731C473.172 31.0183 472.38 31.0124 471.649 31.2562C470.559 31.5743 469.219 32.9049 469.364 34.0908L475.669 32.6638Z" fill="#D1D7DC"/>
<path d="M483.267 29.3759L484.424 28.7492C485.546 28.1384 486.866 27.9985 488.091 28.3601C489.317 28.7217 490.349 29.5552 490.961 30.6775C491.354 31.3992 491.559 32.2082 491.558 33.03V40.5409H488.849C488.415 40.5409 488.521 40.2034 488.521 39.9624V34.6595C488.518 34.1461 488.476 33.6336 488.396 33.1265C488.126 31.6995 487.143 31.0631 485.504 31.1981C484.904 31.2108 484.334 31.4604 483.919 31.8923C483.503 32.3242 483.276 32.9032 483.286 33.5025C483.281 33.5247 483.281 33.5477 483.286 33.57V39.7888C483.286 40.3577 483.161 40.6084 482.544 40.5601C481.927 40.5119 481.03 40.5601 480.22 40.5601V29.2023C480.22 28.6431 480.403 28.4985 480.924 28.5274C481.457 28.566 481.991 28.566 482.524 28.5274C483.016 28.4792 483.392 28.5853 483.267 29.3759Z" fill="#D1D7DC"/>
<path d="M454.052 28.5271H456.945C457.147 28.5271 457.417 28.8646 457.504 29.1056C458.391 31.3714 459.259 33.6468 460.126 35.9222C460.213 36.1536 460.309 36.3754 460.464 36.7321C460.608 36.4332 460.705 36.2404 460.792 36.0476C461.688 33.7432 462.585 31.4389 463.453 29.1152C463.626 28.6621 463.829 28.4596 464.34 28.4885H467.068C466.683 29.4527 466.345 30.3108 465.998 31.1689C464.783 34.1192 463.562 37.0696 462.334 40.0199C462.293 40.1773 462.196 40.3142 462.061 40.4048C461.926 40.4954 461.763 40.5334 461.601 40.5116H459.355C459.235 40.4975 459.12 40.4563 459.018 40.3911C458.916 40.326 458.83 40.2387 458.767 40.1356C457.215 36.4622 455.691 32.7019 454.168 29.0188C454.117 28.858 454.079 28.6936 454.052 28.5271Z" fill="#D1D7DC"/>
<path d="M497.575 23.5327V27.7847C497.575 28.3921 497.768 28.5946 498.346 28.5367C498.776 28.4982 499.208 28.4982 499.638 28.5367C499.792 28.5367 500.043 28.7199 500.043 28.8356V31.4003H497.604V40.5213H494.615C494.518 40.5213 494.364 40.1452 494.364 39.9428V31.4292H492.918C492.436 31.4292 492.378 31.3424 492.387 30.9568V29.0188C492.387 28.6717 492.532 28.556 492.87 28.556C493.207 28.556 494.027 28.6621 494.21 28.421C494.358 27.9476 494.407 27.4488 494.354 26.9555V24.6994C494.354 24.5162 494.509 24.2173 494.644 24.1787C495.588 23.928 496.553 23.7545 497.575 23.5327Z" fill="#D1D7DC"/>
<path d="M529.68 24.2754H532.92V28.0549C532.92 28.4309 533.045 28.5852 533.411 28.5756C533.925 28.5466 534.44 28.5466 534.954 28.5756C535.048 28.5912 535.136 28.6304 535.21 28.6894C535.284 28.7485 535.342 28.8254 535.378 28.913V31.4198H533.691C533.151 31.4198 532.881 31.5452 532.891 32.1912V40.483H529.738V32.114C529.738 31.6319 529.603 31.4391 529.111 31.4777C528.62 31.5162 528.263 31.4777 527.752 31.4777V28.9034C527.752 28.7877 527.954 28.6623 528.08 28.5756C528.205 28.4888 528.234 28.5756 528.321 28.5756C529.709 28.5756 529.709 28.5756 529.709 27.1775L529.68 24.2754Z" fill="#D1D7DC"/>
<path d="M518.516 40.5893H515.778C515.305 40.5893 515.421 40.2325 515.411 39.9626V29.0868C515.411 28.6626 515.556 28.5083 515.98 28.518H518.458C518.473 28.8029 518.509 29.0865 518.564 29.3664L522.045 28.4023V31.4876C521.601 31.5551 521.139 31.6033 520.685 31.6997C520.378 31.7216 520.078 31.8043 519.802 31.943C519.527 32.0816 519.281 32.2735 519.081 32.5075C518.88 32.7415 518.727 33.013 518.632 33.3063C518.537 33.5996 518.501 33.9088 518.526 34.2162C518.521 34.2481 518.521 34.2806 518.526 34.3126V39.789L518.516 40.5893Z" fill="#D1D7DC"/>
<path d="M526.326 40.5122H523.433C523.433 40.2519 523.433 40.0398 523.433 39.8277V29.2219C523.433 28.6819 523.578 28.4891 524.118 28.5277C524.658 28.5662 525.39 28.5277 526.046 28.5277C526.345 28.5277 526.49 28.6241 526.49 28.9519V40.329C526.446 40.3989 526.39 40.4608 526.326 40.5122Z" fill="#D1D7DC"/>
<path d="M524.917 22.2696C525.413 22.269 525.889 22.4588 526.248 22.7999C526.607 23.1409 526.821 23.607 526.846 24.1015C526.846 24.6129 526.643 25.1034 526.281 25.465C525.919 25.8266 525.429 26.0298 524.917 26.0298C524.394 26.0402 523.887 25.8434 523.508 25.4823C523.129 25.1212 522.908 24.6249 522.893 24.1015C522.905 23.8481 522.967 23.5997 523.076 23.3705C523.184 23.1412 523.337 22.9356 523.525 22.7655C523.713 22.5953 523.933 22.4639 524.172 22.3788C524.411 22.2937 524.664 22.2566 524.917 22.2696Z" fill="#D1D7DC"/>
</g>
</g>
</g>
<defs>
<clipPath id="clip0_1_2230">
<rect width="115" height="44" fill="white" transform="translate(0 12)"/>
</clipPath>
<clipPath id="clip1_1_2230">
<rect width="115" height="44" fill="white" transform="translate(0 12)"/>
</clipPath>
<clipPath id="clip2_1_2230">
<rect width="44" height="44" fill="white" transform="translate(139 12)"/>
</clipPath>
<clipPath id="clip3_1_2230">
<rect width="44" height="44" fill="white" transform="translate(139 12)"/>
</clipPath>
<clipPath id="clip4_1_2230">
<rect width="67" height="44" fill="white" transform="translate(207 12)"/>
</clipPath>
<clipPath id="clip5_1_2230">
<rect width="67" height="44" fill="white" transform="translate(207 12)"/>
</clipPath>
<clipPath id="clip6_1_2230">
<rect width="115" height="44" fill="white" transform="translate(298 12)"/>
</clipPath>
<clipPath id="clip7_1_2230">
<rect width="115" height="44" fill="white" transform="translate(298 12)"/>
</clipPath>
<clipPath id="clip8_1_2230">
<rect width="115" height="44" fill="white" transform="translate(437 12)"/>
</clipPath>
<clipPath id="clip9_1_2230">
<rect width="115" height="44" fill="white" transform="translate(437 12)"/>
</clipPath>
</defs>
</svg>
