<svg width="92" height="35" viewBox="0 0 92 35" fill="none" xmlns="http://www.w3.org/2000/svg">
<g clip-path="url(#clip0_1_2308)">
<g clip-path="url(#clip1_1_2308)">
<g clip-path="url(#clip2_1_2308)">
<path d="M14.2891 8.24194L7.15124 4.12097L0.0146763 8.24194V4.12097L7.15211 0L14.29 4.12097V8.24194H14.2891Z" fill="#A435F0"/>
<path d="M0.0146763 11.7017H3.75352V20.7861C3.75352 23.1337 5.5057 24.2771 7.15254 24.2771C8.81146 24.2771 10.5516 23.1026 10.5516 20.755V11.7013H14.29V21.002C14.29 23.1644 13.6108 24.8328 12.2511 25.9761C10.8909 27.1195 9.19143 27.6757 7.12145 27.6757C5.05103 27.6757 3.35152 27.1195 2.02292 25.9761C0.693876 24.8328 0.0146763 23.2265 0.0146763 21.0939V11.7017ZM46.6131 22.9916C45.4814 23.999 44.1916 24.493 42.7214 24.493C40.0408 24.493 38.2412 22.9653 38.0382 20.5991H50.1192C50.1192 20.5991 50.1986 19.8344 50.1986 19.1172C50.1986 16.8927 49.4883 15.0386 48.0362 13.5247C46.6152 12.0104 44.7616 11.2691 42.5059 11.2691C40.1268 11.2691 38.1798 12.0104 36.6349 13.5247C35.1206 15.0386 34.3482 17.0157 34.3482 19.4877V19.6112C34.3482 22.0521 35.1206 23.9981 36.6349 25.4511C38.1488 26.9032 40.157 27.6446 42.5979 27.6446C45.4365 27.6446 47.6956 26.5254 49.3903 24.5944L46.6131 22.9916ZM39.5076 15.4095C40.3409 14.7601 41.3612 14.4207 42.5046 14.4207C43.5858 14.4207 44.4818 14.7601 45.2542 15.4406C45.9926 16.0602 46.3907 16.821 46.4252 17.6962H38.1328C38.2524 16.7925 38.7097 16.0299 39.5076 15.4095ZM84.2497 29.7435C82.7311 33.3252 81.1443 34.5428 78.7116 34.5428H77.0259V31.2288H78.3891C79.2263 31.2288 80.0044 30.9145 80.7462 29.2025L81.4876 27.4904L75.0915 11.7013H78.8921L83.4345 23.0719L88.1004 11.7013H91.901C91.9001 11.7013 85.8124 26.0578 84.2497 29.7435ZM28.8451 5.73831V13.1124C27.6201 12.0139 25.7146 11.361 23.8709 11.361C21.6774 11.361 19.8237 12.1339 18.3095 13.7087C16.8267 15.254 16.0853 17.169 16.0853 19.4868C16.0853 21.8047 16.8267 23.7192 18.3099 25.2956C19.8237 26.841 21.6778 27.6135 23.8713 27.6135C26.402 27.6135 28.0001 26.6199 28.8455 25.8401V27.2737H32.5528V5.73875H28.8455L28.8451 5.73831ZM27.7332 22.8867C26.8373 23.7827 25.6939 24.2468 24.3653 24.2468C23.0362 24.2468 21.955 23.7827 21.0595 22.8867C20.1946 21.9912 19.7616 20.8478 19.7616 19.4877C19.7616 18.128 20.1946 16.9846 21.0595 16.0887C21.955 15.1931 23.0362 14.729 24.3653 14.729C25.6939 14.729 26.8373 15.1931 27.7332 16.0891C28.6598 16.9846 29.124 18.128 29.124 19.4877C29.124 20.8478 28.6598 21.9912 27.7332 22.8867ZM69.3272 11.3934C66.5111 11.3934 65.0465 12.5618 64.0434 13.6871C63.6427 12.9224 62.5132 11.3934 59.8728 11.3934C57.6426 11.3934 56.3265 12.5204 55.6715 13.3244V11.703H51.9949V27.275H55.6715V18.3145C55.6715 16.213 56.969 14.6992 58.6996 14.6992C60.4613 14.6992 61.4803 16.0278 61.4803 18.1591V27.2741H65.157V18.3128C65.157 16.1806 66.4234 14.6975 68.246 14.6975C70.0077 14.6975 71.0267 16.0261 71.0267 18.1574V27.2724H74.7345V17.6327C74.7345 13.5731 72.5526 11.3934 69.3272 11.3934Z" fill="white"/>
</g>
</g>
</g>
<defs>
<clipPath id="clip0_1_2308">
<rect width="91.06" height="34.19" fill="white" transform="scale(1.01032)"/>
</clipPath>
<clipPath id="clip1_1_2308">
<rect width="91.06" height="34.19" fill="white" transform="scale(1.01032)"/>
</clipPath>
<clipPath id="clip2_1_2308">
<rect width="91.0309" height="34.19" fill="white" transform="translate(0.0146763) scale(1.01032)"/>
</clipPath>
</defs>
</svg>
